<?xml version="1.0" standalone="no"?>
<!DOCTYPE svg PUBLIC "-//W3C//DTD SVG 20010904//EN"
 "http://www.w3.org/TR/2001/REC-SVG-20010904/DTD/svg10.dtd">
<svg version="1.0" xmlns="http://www.w3.org/2000/svg"
 width="449.000000pt" height="567.000000pt" viewBox="0 0 449.000000 567.000000"
 preserveAspectRatio="xMidYMid meet">
<metadata>
Created by potrace 1.15, written by Peter Selinger 2001-2017
</metadata>
<g transform="translate(0.000000,567.000000) scale(0.100000,-0.100000)"
fill="#000000" stroke="none">
<path d="M180 2835 l0 -2655 2065 0 2065 0 0 2655 0 2655 -2065 0 -2065 0 0
-2655z m4120 659 l0 -1985 -37 31 c-96 81 -124 101 -217 160 -116 73 -289 153
-401 185 -44 12 -116 37 -160 54 -44 17 -85 31 -90 31 -6 0 -33 15 -61 34 -53
36 -172 98 -264 139 -49 21 -61 32 -97 93 -23 38 -49 92 -58 119 -21 62 -61
144 -83 169 -16 17 -17 16 -24 -35 -3 -30 -6 -79 -7 -111 -1 -31 -6 -58 -11
-60 -6 -2 -13 -53 -16 -117 -5 -116 -13 -144 -59 -206 -13 -16 -36 -57 -52
-90 -69 -139 -87 -165 -117 -165 -18 0 -21 -5 -19 -37 3 -39 -15 -122 -26
-124 -3 0 -21 -2 -38 -5 -18 -2 -33 1 -33 6 0 6 -4 10 -10 10 -6 0 -6 -9 0
-25 10 -27 -1 -41 -25 -31 -9 3 -12 0 -8 -10 3 -8 -1 -14 -11 -14 -9 0 -16 5
-16 10 0 6 -7 10 -15 10 -9 0 -18 7 -21 15 -4 8 -10 13 -15 10 -4 -3 -6 -11
-3 -18 2 -7 -4 -21 -15 -31 -11 -10 -18 -23 -14 -29 4 -6 -5 -8 -23 -4 -19 3
-35 0 -46 -10 -10 -9 -25 -13 -35 -9 -10 4 -18 6 -19 4 0 -2 -9 3 -18 11 -13
11 -20 11 -28 3 -18 -18 -36 -14 -43 9 -6 17 -9 19 -16 8 -5 -9 -7 0 -4 24 5
35 4 37 -15 27 -11 -6 -19 -16 -17 -22 1 -7 -6 -14 -15 -16 -12 -2 -21 5 -28
22 -5 14 -16 26 -25 26 -8 0 -26 17 -39 38 -22 35 -24 48 -22 131 l3 91 -74
78 c-112 116 -109 107 -117 352 -3 69 -7 136 -9 150 -2 14 -5 30 -6 35 -1 6
-6 3 -12 -5 -7 -11 -8 -5 -5 22 3 20 1 40 -4 43 -6 3 -10 21 -10 38 0 59 -10
77 -41 77 -47 0 -74 -16 -94 -56 -27 -51 -143 -269 -170 -318 -16 -28 -33 -44
-60 -53 -37 -12 -72 -38 -194 -137 -36 -30 -77 -52 -125 -67 -69 -21 -167 -66
-213 -97 -13 -8 -58 -27 -102 -42 -85 -29 -240 -109 -330 -169 -31 -20 -73
-47 -93 -60 l-38 -23 0 1951 0 1951 2055 0 2055 0 0 -1986z"/>
<path d="M2523 5240 c-20 -44 -25 -47 -43 -25 -13 16 -35 21 -26 6 3 -5 -1
-14 -10 -21 -12 -11 -20 -9 -43 8 -35 25 -98 52 -120 51 -9 -1 -5 -4 9 -9 24
-8 23 -8 -8 -9 -22 -1 -31 3 -26 10 4 8 1 8 -12 1 -13 -7 -45 -6 -104 4 -99
17 -196 11 -257 -16 -37 -16 -108 -63 -123 -81 -17 -21 -49 -27 -89 -18 -47
10 -71 4 -27 -7 32 -8 34 -22 4 -28 -67 -14 -152 -25 -159 -20 -13 7 -97 -17
-110 -32 -15 -18 2 -18 27 1 10 8 30 14 44 14 15 0 19 -3 10 -6 -53 -19 -82
-39 -99 -68 -17 -30 -18 -33 -3 -28 13 4 12 0 -4 -14 -12 -10 -24 -26 -27 -36
-4 -9 -17 -21 -31 -27 -34 -12 -53 -44 -67 -109 -7 -31 -16 -61 -21 -67 -4 -6
-13 -37 -19 -68 -5 -31 -18 -80 -28 -110 -20 -60 -26 -172 -12 -226 5 -19 18
-70 30 -112 11 -43 21 -94 21 -113 0 -19 4 -43 9 -53 6 -13 45 -135 67 -210 2
-7 -9 -24 -24 -38 l-27 -25 30 4 c49 8 135 -46 135 -86 0 -10 -11 -28 -25 -39
-14 -11 -25 -27 -25 -36 0 -30 -17 -47 -32 -34 -11 9 -17 9 -26 0 -15 -15 -15
-9 -1 30 6 18 26 41 45 53 41 25 44 42 7 33 -39 -9 -43 -12 -55 -42 -10 -25
-11 -26 -18 -7 -4 11 -1 40 6 65 14 48 13 56 -10 47 -16 -6 -36 -66 -36 -109
0 -16 -5 -28 -11 -28 -12 0 -5 -131 9 -156 8 -15 11 -12 17 15 l7 33 28 -27
c16 -15 33 -24 39 -21 6 4 25 -7 43 -25 l33 -31 3 26 c2 14 -4 41 -13 60 -9
19 -14 40 -10 46 4 7 17 -12 30 -45 37 -91 48 -91 33 0 -11 70 -3 202 14 222
7 9 12 55 12 124 1 84 4 112 15 119 11 6 12 12 3 22 -16 20 -11 59 12 92 11
16 15 26 8 22 -7 -4 -12 -3 -12 3 0 5 5 13 10 16 6 4 8 11 5 16 -4 5 -2 9 3 9
10 0 55 88 65 125 3 11 9 43 12 70 7 58 36 95 74 95 15 0 34 12 51 31 24 29
28 31 50 19 19 -10 25 -10 34 1 26 32 61 43 136 40 51 -2 77 -7 83 -16 5 -11
14 -12 32 -5 20 8 24 6 28 -13 3 -21 4 -21 15 4 10 26 15 27 104 33 51 3 154
8 228 10 74 2 142 7 151 11 10 3 20 2 23 -4 4 -6 13 -8 21 -4 8 3 15 1 15 -5
0 -5 18 -27 41 -48 52 -50 81 -106 79 -152 -1 -21 -1 -41 0 -47 5 -23 -3 -49
-20 -67 -15 -16 -22 -18 -40 -8 -11 6 -33 9 -48 5 -21 -4 -27 -11 -27 -33 -1
-15 4 -31 10 -35 6 -5 2 -7 -10 -6 -11 1 -27 -1 -35 -4 -8 -4 -34 -8 -57 -10
-24 -2 -46 -6 -50 -10 -3 -4 -15 -7 -26 -7 -34 0 -75 -32 -79 -61 -3 -16 -1
-34 4 -41 5 -9 8 -8 8 5 0 15 3 16 20 7 25 -13 140 -7 188 11 18 6 46 9 62 5
17 -3 30 -1 30 4 0 12 80 2 94 -11 6 -5 21 -9 34 -9 13 0 21 -4 17 -9 -6 -11
26 -31 50 -31 9 0 13 4 10 10 -8 13 24 60 40 60 18 0 25 -21 41 -125 7 -49 25
-128 39 -174 15 -50 25 -109 26 -150 l1 -66 18 40 c14 30 20 36 25 23 4 -9 2
-25 -4 -37 -17 -31 -14 -91 4 -91 9 0 18 7 21 15 4 8 12 15 20 15 8 0 14 5 14
10 0 6 9 10 19 10 11 0 21 6 24 13 2 6 8 8 13 4 5 -5 1 -22 -9 -39 -17 -29
-17 -31 0 -43 13 -10 20 -10 25 -2 12 18 10 225 -2 232 -5 3 -10 18 -10 33 -1
35 -26 106 -40 110 -5 2 -10 8 -10 14 0 6 8 7 18 4 12 -4 10 0 -7 14 -13 11
-29 20 -37 20 -8 0 -14 3 -14 6 0 10 22 49 40 69 10 11 29 67 43 125 21 88 25
123 22 220 -2 63 -8 148 -14 188 -6 41 -9 77 -7 81 8 12 -42 153 -64 183 -11
15 -20 31 -20 36 0 4 -15 23 -34 41 -19 18 -36 43 -39 55 -8 31 -30 87 -47
116 -8 14 -15 27 -15 30 -6 27 -32 58 -58 69 -18 7 -42 17 -55 22 -14 5 -20
14 -16 21 4 6 3 8 -4 4 -6 -3 -17 3 -25 14 -15 21 -93 54 -108 44 -5 -3 -9 0
-9 6 0 6 -16 18 -35 26 -31 13 -39 12 -71 -1 l-36 -15 6 35 c9 46 2 44 -21 -5z"/>
<path d="M1667 4167 c-22 -7 -35 -16 -31 -20 5 -4 1 -5 -8 -2 -11 4 -18 0 -23
-14 -3 -12 -10 -21 -14 -21 -4 0 -16 -6 -26 -14 -15 -11 -19 -28 -21 -90 -2
-42 0 -76 3 -76 3 0 18 9 34 21 16 11 34 17 40 13 8 -4 9 -3 5 4 -5 8 0 12 13
12 11 0 22 4 25 9 11 17 99 21 169 6 59 -12 130 -14 180 -6 14 2 7 49 -10 70
-14 17 -37 24 -106 34 l-88 12 -11 37 c-11 36 -13 38 -52 37 -23 0 -58 -6 -79
-12z"/>
<path d="M2424 3946 c-30 -18 -44 -35 -52 -64 -7 -22 -27 -55 -45 -75 -27 -30
-37 -35 -69 -32 -30 3 -38 0 -43 -16 -4 -10 -15 -24 -25 -29 -11 -6 -33 -38
-49 -73 -17 -34 -45 -78 -62 -97 -30 -34 -54 -79 -46 -87 9 -8 56 17 85 46 17
17 39 31 49 31 10 0 26 7 36 14 12 10 37 13 75 10 31 -2 62 -3 69 -4 6 0 21
-16 33 -35 21 -35 57 -62 67 -51 3 3 -4 17 -16 32 -11 15 -21 31 -21 37 0 6
-7 18 -16 28 -22 24 -28 103 -10 118 10 9 21 9 33 3 23 -12 86 -7 91 7 5 14
67 41 93 41 13 0 19 7 19 23 0 16 3 18 9 8 7 -11 9 -11 13 0 4 11 9 10 25 -3
11 -10 23 -18 26 -18 15 0 77 73 83 96 15 58 -71 102 -213 110 -92 5 -100 4
-139 -20z"/>
<path d="M1830 3943 c-81 -15 -137 -36 -162 -60 -31 -30 -31 -49 2 -105 26
-45 58 -58 77 -32 11 16 13 16 13 1 0 -10 5 -14 15 -11 8 4 15 1 15 -6 0 -9 3
-10 14 -1 10 9 15 8 20 -4 3 -8 12 -15 20 -15 7 0 17 -11 20 -25 6 -23 15 -28
66 -37 14 -3 72 12 132 34 37 14 64 72 49 105 -8 18 -16 23 -31 18 -14 -5 -20
-2 -20 9 0 9 -5 16 -11 16 -6 0 -8 8 -4 20 9 27 -8 54 -50 79 -38 22 -95 31
-65 10 12 -8 11 -9 -5 -5 -42 11 -71 13 -95 9z"/>
<path d="M2398 3343 c-16 -2 -28 -9 -28 -14 0 -5 -19 -9 -43 -9 -38 0 -44 -3
-54 -30 -11 -29 -43 -42 -43 -17 -1 27 -30 50 -67 52 -21 1 -42 4 -48 5 -26 6
-66 -1 -59 -11 7 -12 -54 -79 -73 -79 -7 0 -13 -4 -13 -10 0 -5 -7 -10 -15
-10 -8 0 -15 -3 -16 -7 -3 -30 -10 -48 -27 -67 -26 -27 -19 -65 19 -102 27
-26 35 -28 121 -29 55 -1 96 2 100 8 4 7 11 7 21 -2 8 -6 40 -14 70 -17 44 -4
61 -1 91 17 31 18 37 19 42 5 5 -12 15 -14 42 -10 21 3 39 8 41 10 2 2 12 -3
22 -12 17 -15 20 -14 41 8 13 12 31 22 39 20 12 -2 15 4 11 28 -4 30 10 41 24
18 13 -20 23 39 14 73 -5 17 -28 47 -52 67 -24 20 -61 56 -82 79 -22 24 -42
42 -45 42 -3 -1 -18 -4 -33 -6z"/>
<path d="M2926 2938 c-3 -17 -9 -28 -12 -25 -4 3 -16 0 -28 -8 -32 -23 -81
-19 -94 8 -6 12 -11 16 -11 9 -1 -8 -6 -10 -13 -5 -7 4 -29 8 -48 8 -33 0 -36
-2 -34 -27 2 -29 -22 -46 -40 -28 -28 28 -82 -7 -106 -70 -17 -46 -30 -60 -30
-33 0 17 -5 21 -25 18 -16 -1 -25 3 -25 12 0 19 -28 28 -45 13 -8 -7 -15 -9
-15 -4 -1 5 -7 -2 -14 -16 -18 -31 -14 -36 28 -44 35 -7 57 -43 34 -57 -6 -4
-8 -14 -5 -23 8 -19 -24 -39 -48 -30 -10 4 -15 2 -13 -7 2 -8 -3 -13 -11 -11
-7 1 -18 -1 -25 -6 -14 -11 -26 -9 -54 7 -20 11 -26 10 -44 -6 -18 -16 -21
-16 -31 -2 -14 18 -47 32 -47 20 0 -17 -120 4 -132 23 -4 5 -4 15 0 21 3 5 8
19 9 29 5 27 8 29 48 29 l35 0 -22 24 c-27 29 -48 30 -55 2 -7 -24 -51 -45
-66 -30 -5 5 -16 7 -23 4 -9 -3 -18 6 -25 26 -11 30 -14 33 -41 35 -7 1 -15 4
-18 8 -3 4 -25 2 -49 -3 -34 -7 -46 -7 -52 3 -4 7 -11 9 -14 6 -4 -4 -18 -2
-32 3 -17 6 -30 6 -38 -1 -6 -5 -14 -7 -17 -4 -3 2 -8 -6 -10 -20 -6 -28 28
-86 50 -86 7 0 11 -4 7 -9 -3 -6 1 -13 9 -18 8 -4 18 -23 23 -42 7 -28 16 -37
48 -48 22 -7 45 -20 51 -28 18 -24 62 -35 150 -40 46 -2 93 -9 105 -16 14 -7
73 -12 159 -12 116 0 142 3 183 21 26 11 47 19 47 16 0 -8 97 45 127 70 20 17
37 23 51 19 15 -3 24 0 28 11 3 9 14 16 24 16 10 0 22 9 25 20 3 11 11 20 16
20 5 0 9 6 9 14 0 7 27 46 61 87 34 41 72 98 85 127 27 59 28 62 15 62 -5 0
-11 -14 -15 -32z"/>
</g>
</svg>
